<svg width="310" height="42" viewBox="0 0 310 42" fill="none" xmlns="http://www.w3.org/2000/svg">
<path d="M25.4305 28.5189C23.1321 30.0621 18.9949 30.8173 16.4338 30.8173C6.68199 30.8173 0.0166016 25.137 0.0166016 15.9433C0.0166016 11.3137 1.8225 7.47203 5.13878 4.91094C8.22521 2.31702 12.2967 1.06931 16.9263 1.06931C20.768 1.06931 24.3798 2.12001 26.4155 2.8752C25.923 4.91094 25.6603 7.01234 25.6603 9.04808H24.3798V5.92881C24.3798 4.8781 22.8365 4.12291 20.8008 3.33488C19.5203 2.84237 17.7144 2.57969 16.1712 2.57969C8.45506 2.57969 4.38358 8.26005 4.38358 15.1553C4.38358 23.3639 9.76843 28.4861 17.977 28.4861C21.0635 28.4861 24.4126 27.4354 26.1857 25.8921L26.4483 26.3847L25.4305 28.5189Z" fill="white"/>
<path d="M35.7407 30.5882C30.6186 30.5882 27.0396 26.451 27.0396 21.099C27.0396 14.9262 30.8812 10.5592 37.5795 10.5592C42.7016 10.5592 46.8388 14.6963 46.8388 19.8185C46.8388 25.9914 42.4718 30.621 36.0362 30.621H35.7736V30.5882H35.7407ZM30.8484 19.2931C30.8484 23.6601 32.3916 29.3076 37.7765 29.3076C41.6181 29.3076 43.1613 25.466 43.1613 21.8542C43.1613 16.4694 40.5674 12.1024 36.7258 12.1024C32.1289 11.8397 30.8484 15.4187 30.8484 19.2931Z" fill="white"/>
<path d="M49.8266 16.4361C49.8266 15.1555 49.8266 14.1376 49.5639 13.8421C49.3012 13.5795 48.8087 13.3496 48.0207 13.3496H46.4774V12.2989C48.7759 12.0362 51.3698 11.2482 52.913 10.493L53.1757 10.7557V14.8928L55.4741 12.2989C56.5248 11.0184 57.7725 10.493 58.8232 10.493C59.5784 10.493 60.3664 10.7557 60.6291 10.9855L60.3664 15.8779H59.6112C59.1187 14.8272 58.3307 14.072 56.7875 14.072C54.9816 14.072 53.2085 15.8779 53.2085 18.7016V25.8595C53.2085 26.9102 53.2085 27.8953 53.4712 28.158C53.7339 28.4206 54.2264 28.6505 55.2771 28.6505H57.3128V29.931C55.2771 29.931 53.4712 29.931 51.4026 29.931C49.3669 29.931 47.8237 29.931 46.2804 29.931V28.6505H48.0863C48.8415 28.6505 49.137 28.3878 49.3669 28.158C49.6295 27.6654 49.6295 26.8774 49.6295 25.8595V16.3704H49.7937V16.4361H49.8266Z" fill="white"/>
<path d="M68.8372 25.6954C68.8372 26.7461 68.8372 27.7311 69.0998 27.9938C69.3625 28.2565 69.5924 28.4863 70.3804 28.4863H72.1863V29.7668C70.6431 29.7668 69.0998 29.7668 67.0641 29.7668C65.0284 29.7668 63.4851 29.7668 61.9419 29.7668V28.4863H63.7478C64.503 28.4863 64.7985 28.2236 65.0284 27.9938C65.291 27.5013 65.291 26.7132 65.291 25.6954V16.4361C65.291 15.1555 65.291 14.1376 65.0284 13.8421C64.7657 13.5466 64.2732 13.3496 63.4851 13.3496H62.2046V12.2989C64.503 12.0362 67.0969 11.2482 68.6402 10.493L68.9028 10.7557V14.3347L71.9893 11.7407C73.04 10.9855 73.7952 10.69 75.3384 10.69C80.2307 10.69 82.0038 13.2839 82.0038 17.8479V25.7939C82.0038 26.8446 82.0038 27.8296 82.2664 28.0923C82.5291 28.355 82.759 28.5848 83.547 28.5848H85.3529V29.8653C84.3022 29.8653 83.0545 29.8653 82.0038 29.8653C80.9531 29.8653 79.7054 29.8653 78.6547 29.8653V18.3076C78.6547 14.9585 76.6189 13.1854 74.025 13.1854C71.4311 13.1854 68.9028 15.2212 68.9028 17.0271L68.8372 25.6954Z" fill="white"/>
<path d="M102.46 17.9793C102.46 18.4718 102.46 19.03 102.46 19.7852C99.8658 20.2777 97.5674 20.2777 95.0063 20.2777H89.0961C89.0961 25.17 91.3945 28.4863 96.5495 28.4863C98.5852 28.4863 100.128 27.4356 101.672 26.4506L102.164 26.9431L101.409 28.2236C101.146 28.7161 97.5674 30.522 94.7436 30.522C88.5707 30.522 85.2544 26.6804 85.2544 21.0329C85.2544 16.8957 86.3051 14.5973 88.3409 13.0869C89.0961 12.5944 89.8841 11.8064 90.9348 11.5437C92.478 10.7885 93.5287 10.493 95.0719 10.493C99.1434 10.5259 102.46 13.3825 102.46 17.9793ZM89.1289 18.242V18.7345C90.9348 18.9971 92.7079 18.9971 94.2511 18.9971C95.7943 18.9971 97.3375 18.9971 98.8807 18.9971C98.8807 15.1555 97.6002 12.0691 94.5138 12.0691C91.4273 11.8392 89.1289 14.1705 89.1289 18.242Z" fill="white"/>
<path d="M106.302 4.38603C106.302 3.33532 106.302 2.58013 105.251 2.58013H102.952V1.56226C104.988 1.29959 107.319 0.80707 109.388 0.019043L109.651 0.28172V25.6956C109.651 26.7463 109.651 27.7313 109.913 27.994C110.176 28.2567 110.406 28.4865 111.194 28.4865H113V29.7671C111.457 29.7671 109.913 29.7671 107.878 29.7671C105.842 29.7671 104.299 29.7671 102.755 29.7671V28.4865H104.561C105.316 28.4865 105.612 28.2238 105.842 27.994C106.104 27.5015 106.105 26.7135 106.105 25.6956V4.38603H106.302Z" fill="white"/>
<path d="M116.612 4.38603C116.612 3.33532 116.612 2.58013 115.561 2.58013H113.262V1.56226C115.298 1.29959 117.629 0.80707 119.698 0.019043L119.961 0.28172V25.6956C119.961 26.7463 119.961 27.7313 120.223 27.994C120.486 28.2567 120.716 28.4865 121.504 28.4865H123.31V29.7671C121.767 29.7671 120.223 29.7671 118.188 29.7671C116.152 29.7671 114.609 29.7671 113.065 29.7671V28.4865H114.871C115.627 28.4865 115.922 28.2238 116.152 27.994C116.415 27.5015 116.415 26.7135 116.415 25.6956V4.38603H116.612Z" fill="white"/>
<path d="M135.853 6.45457C135.853 4.91136 135.853 3.86066 135.59 3.36814C135.327 2.87562 134.835 2.87562 133.784 2.87562H131.748V1.56224C133.784 1.56224 135.885 1.56224 137.921 1.56224C139.727 1.56224 141.763 1.56224 143.831 1.56224V2.84279H141.796C140.745 2.84279 140.252 3.10546 139.99 3.3353C139.727 3.82782 139.727 4.87852 139.727 6.42174V20.5406C139.727 26.4508 142.814 27.994 148.198 27.994C152.565 27.994 156.67 26.1881 156.67 19.5227V6.42174C156.67 4.87852 156.67 3.82782 156.407 3.3353C156.144 2.84279 155.652 2.84279 154.601 2.84279H152.795V1.59508C154.338 1.59508 156.144 1.59508 157.688 1.59508C159.231 1.59508 160.774 1.59508 162.58 1.59508V2.87562H160.807C159.756 2.87562 159.264 3.1383 159.001 3.36814C158.738 3.86066 158.738 4.91136 158.738 6.45457V18.2421C158.738 26.9433 155.389 30.5879 147.181 30.5879C140.252 30.5879 136.148 28.5522 136.148 21.0987V6.45457H135.853Z" fill="white"/>
<path d="M167.932 25.6954C167.932 26.7461 167.932 27.7311 168.194 27.9938C168.457 28.2565 168.687 28.4863 169.475 28.4863H171.281V29.7668C169.738 29.7668 168.194 29.7668 166.159 29.7668C164.123 29.7668 162.58 29.7668 161.036 29.7668V28.4863H162.842C163.597 28.4863 163.893 28.2236 164.123 27.9938C164.386 27.5013 164.386 26.7132 164.386 25.6954V16.4361C164.386 15.1555 164.386 14.1376 164.123 13.8421C163.86 13.5466 163.368 13.3496 162.58 13.3496H161.036V12.2989C163.335 12.0362 165.929 11.2482 167.472 10.493L167.735 10.7557V14.3347L170.821 11.7407C171.872 10.9855 172.627 10.69 174.17 10.69C179.063 10.69 180.836 13.2839 180.836 17.8479V25.7939C180.836 26.8446 180.836 27.8296 181.098 28.0923C181.361 28.355 181.591 28.5848 182.379 28.5848H184.185V29.8653C183.134 29.8653 181.886 29.8653 180.836 29.8653C179.785 29.8653 178.537 29.8653 177.486 29.8653V18.3076C177.486 14.9585 175.451 13.1854 172.857 13.1854C170.263 13.1854 167.735 15.2212 167.735 17.0271V25.5969H167.932V25.6954Z" fill="white"/>
<path d="M192.591 25.6956C192.591 26.7463 192.591 27.7313 192.853 27.994C193.116 28.2567 193.346 28.4865 194.134 28.4865H195.94V29.767C194.397 29.767 192.853 29.767 190.818 29.767C188.782 29.767 187.239 29.767 185.695 29.767V28.4865H187.501C188.256 28.4865 188.552 28.2238 188.782 27.994C189.045 27.5015 189.045 26.7134 189.045 25.6956V16.4363C189.045 15.1557 189.045 14.1378 188.782 13.8423C188.519 13.5468 188.027 13.3498 187.239 13.3498H185.695V12.2991C187.994 12.0364 190.588 11.2484 192.131 10.4932L192.394 10.7559V25.6627H192.591V25.6956ZM192.853 3.86066C192.853 5.1412 191.803 6.15907 190.555 6.15907C189.274 6.15907 188.256 5.10836 188.256 3.86066C188.256 2.61295 189.307 1.56224 190.555 1.56224C191.803 1.56224 192.853 2.58011 192.853 3.86066Z" fill="white"/>
<path d="M207.99 25.6958C207.234 27.2391 206.939 28.7823 206.184 30.0628H204.148L196.924 13.3829C196.662 12.8904 196.432 12.1024 195.644 12.1024H194.363V11.0517C195.907 11.0517 197.45 11.0517 199.256 11.0517C200.799 11.0517 202.342 11.0517 204.148 11.0517V12.1024H202.112C201.357 12.1024 201.062 12.3651 201.062 12.8576C201.062 13.1202 201.062 13.6128 201.324 14.4008L206.217 26.1884C206.972 24.3825 208.022 22.3467 208.81 20.508L210.616 16.141C211.109 14.8605 211.372 13.8426 211.372 13.0546C211.372 12.2994 211.109 12.0039 210.321 12.0039H208.515V10.9532C209.796 10.9532 211.109 10.9532 212.357 10.9532C213.604 10.9532 214.951 10.9532 216.198 10.9532V12.0039H214.918C213.867 12.0039 213.112 13.5471 212.619 14.8276L207.99 25.6958Z" fill="white"/>
<path d="M232.615 17.9793C232.615 18.4718 232.615 19.03 232.615 19.7852C230.022 20.2777 227.723 20.2777 225.162 20.2777H219.252C219.252 25.17 221.55 28.4863 226.705 28.4863C228.741 28.4863 230.284 27.4356 231.827 26.4506L232.32 26.9431L231.565 28.2236C231.302 28.7161 227.723 30.522 224.899 30.522C218.727 30.522 215.41 26.6804 215.41 21.0329C215.41 16.8957 216.461 14.5973 218.497 13.0869C219.252 12.5944 220.04 11.8064 221.091 11.5437C222.634 10.7885 223.685 10.493 225.228 10.493C229.299 10.5259 232.615 13.3825 232.615 17.9793ZM219.022 18.242V18.7345C220.828 18.9971 222.601 18.9971 224.144 18.9971C225.687 18.9971 227.231 18.9971 228.774 18.9971C228.774 15.1555 227.493 12.0691 224.407 12.0691C221.616 11.8392 219.022 14.1705 219.022 18.242Z" fill="white"/>
<path d="M237.245 16.4361C237.245 15.1555 237.245 14.1376 236.983 13.8421C236.72 13.5795 236.227 13.3496 235.439 13.3496H233.896V12.2989C236.195 12.0362 238.788 11.2482 240.332 10.493L240.594 10.7557V14.8928L242.893 12.2989C243.943 11.0184 245.191 10.493 246.242 10.493C246.997 10.493 247.785 10.7557 248.048 10.9855L247.785 15.8779H247.03C246.537 14.8272 245.749 14.072 244.206 14.072C242.4 14.072 240.627 15.8779 240.627 18.7016V25.8595C240.627 26.9102 240.627 27.8953 240.89 28.158C241.153 28.4206 241.645 28.6505 242.696 28.6505H244.732V29.931C242.696 29.931 240.89 29.931 238.821 29.931C236.753 29.931 235.242 29.931 233.699 29.931V28.6505H235.505C236.26 28.6505 236.556 28.3878 236.786 28.158C237.048 27.6654 237.048 26.8774 237.048 25.8595V16.3704H237.212L237.245 16.4361Z" fill="white"/>
<path d="M251.364 25.7289C251.364 28.3228 254.188 29.3078 256.749 29.3078C259.343 29.3078 261.641 27.7646 261.641 25.4662C261.641 24.1857 260.886 23.1678 259.605 22.6424C257.8 22.1499 255.468 21.5917 253.433 21.0992C251.397 20.344 249.854 19.0635 249.854 16.7322C249.854 12.3653 253.695 10.822 257.57 10.822C259.605 10.822 261.149 11.3146 262.955 11.8727C262.955 13.416 262.692 14.9592 262.692 16.5024H261.641V15.4517C261.641 13.416 259.343 12.1026 256.749 12.1026C253.17 12.1026 252.612 14.1383 252.612 15.4517C252.612 17.2576 253.892 18.2755 256.979 18.8008C261.871 19.556 264.137 20.8365 264.137 23.923C264.137 28.5526 259.507 30.851 255.14 30.851C253.104 30.851 251.298 30.5884 249.46 29.8003C249.952 27.9945 249.952 25.9587 249.952 24.12H251.233V23.8573H251.364V25.7289Z" fill="white"/>
<path d="M272.674 25.6956C272.674 26.7463 272.674 27.7313 272.937 27.994C273.2 28.2567 273.43 28.4865 274.218 28.4865H276.023V29.767C274.48 29.767 272.937 29.767 270.901 29.767C268.866 29.767 267.322 29.767 265.779 29.767V28.4865H267.585C268.34 28.4865 268.636 28.2238 268.866 27.994C269.128 27.5015 269.128 26.7134 269.128 25.6956V16.4363C269.128 15.1557 269.128 14.1378 268.866 13.8423C268.603 13.5468 268.11 13.3498 267.322 13.3498H265.779V12.2991C268.078 12.0364 270.671 11.2484 272.215 10.4932L272.477 10.7559V25.6627H272.674V25.6956ZM273.2 3.86066C273.2 5.1412 272.149 6.15907 270.901 6.15907C269.621 6.15907 268.603 5.10836 268.603 3.86066C268.603 2.61295 269.654 1.56224 270.901 1.56224C271.919 1.56224 273.2 2.58011 273.2 3.86066Z" fill="white"/>
<path d="M275.498 14.4009V13.6457L278.584 12.1025V9.27871C278.584 8.228 278.584 7.24297 278.322 5.92959C279.865 5.43707 281.145 4.87889 281.901 4.38637L282.393 4.87889C282.13 6.68478 281.901 9.01603 281.901 10.7891V12.3323L287.581 12.0696L287.318 14.368H282.196V25.1706C282.196 26.9765 282.689 27.9943 284.495 27.9943C285.545 27.9943 286.3 27.5018 286.793 27.2391L287.285 27.9943L285.25 30.0301C284.987 30.5226 283.444 30.5226 282.656 30.5226C280.62 30.5226 278.519 29.4719 278.519 26.1556V14.368L275.498 14.4009Z" fill="white"/>
<path d="M304.26 14.4003C304.523 13.9078 304.523 13.6451 304.523 13.3496C304.523 12.5944 304.031 12.2989 302.717 12.2989H301.666V11.2482C302.947 11.2482 304.26 11.2482 305.508 11.2482C306.789 11.2482 308.102 11.2482 309.35 11.2482V12.2989H308.299C307.248 12.2989 306.493 13.5795 304.95 17.1913L296.741 36.4651C295.461 39.5515 293.918 41.5873 290.568 41.5873C289.813 41.5873 289.025 41.3246 288.533 41.0947L289.583 38.0083H290.076C290.568 38.5008 291.619 39.059 292.112 39.059C294.41 38.7963 295.691 35.4801 296.479 33.6742L297.529 31.0802L290.864 14.4003C290.109 12.8571 289.583 12.3646 288.828 12.3646H288.073V11.3139C289.616 11.3139 291.159 11.3139 292.965 11.3139C294.509 11.3139 296.052 11.3139 297.858 11.3139V12.3646H296.314C295.559 12.3646 295.034 12.6273 295.034 13.4153C295.034 13.9078 295.034 14.466 295.297 14.9585L299.926 26.2536L304.26 14.4003Z" fill="white"/>
<path d="M25.4305 28.5189C23.1321 30.0621 18.9949 30.8173 16.4338 30.8173C6.68199 30.8173 0.0166016 25.137 0.0166016 15.9433C0.0166016 11.3137 1.8225 7.47203 5.13878 4.91094C8.22521 2.31702 12.2967 1.06931 16.9263 1.06931C20.768 1.06931 24.3798 2.12001 26.4155 2.8752C25.923 4.91094 25.6603 7.01234 25.6603 9.04808H24.3798V5.92881C24.3798 4.8781 22.8365 4.12291 20.8008 3.33488C19.5203 2.84237 17.7144 2.57969 16.1712 2.57969C8.45506 2.57969 4.38358 8.26005 4.38358 15.1553C4.38358 23.3639 9.76843 28.4861 17.977 28.4861C21.0635 28.4861 24.4126 27.4354 26.1857 25.8921L26.4483 26.3847L25.4305 28.5189Z" stroke="white" stroke-width="0.0328344"/>
<path d="M35.7407 30.5882C30.6186 30.5882 27.0396 26.451 27.0396 21.099C27.0396 14.9262 30.8812 10.5592 37.5795 10.5592C42.7016 10.5592 46.8388 14.6963 46.8388 19.8185C46.8388 25.9914 42.4718 30.621 36.0362 30.621H35.7736V30.5882H35.7407ZM30.8484 19.2931C30.8484 23.6601 32.3916 29.3076 37.7765 29.3076C41.6181 29.3076 43.1613 25.466 43.1613 21.8542C43.1613 16.4694 40.5674 12.1024 36.7258 12.1024C32.1289 11.8397 30.8484 15.4187 30.8484 19.2931Z" stroke="white" stroke-width="0.0328344"/>
<path d="M49.8266 16.4361C49.8266 15.1555 49.8266 14.1376 49.5639 13.8421C49.3012 13.5795 48.8087 13.3496 48.0207 13.3496H46.4774V12.2989C48.7759 12.0362 51.3698 11.2482 52.913 10.493L53.1757 10.7557V14.8928L55.4741 12.2989C56.5248 11.0184 57.7725 10.493 58.8232 10.493C59.5784 10.493 60.3664 10.7557 60.6291 10.9855L60.3664 15.8779H59.6112C59.1187 14.8272 58.3307 14.072 56.7875 14.072C54.9816 14.072 53.2085 15.8779 53.2085 18.7016V25.8595C53.2085 26.9102 53.2085 27.8953 53.4712 28.158C53.7339 28.4206 54.2264 28.6505 55.2771 28.6505H57.3128V29.931C55.2771 29.931 53.4712 29.931 51.4026 29.931C49.3669 29.931 47.8237 29.931 46.2804 29.931V28.6505H48.0863C48.8415 28.6505 49.137 28.3878 49.3669 28.158C49.6295 27.6654 49.6295 26.8774 49.6295 25.8595V16.3704H49.7937V16.4361H49.8266Z" stroke="white" stroke-width="0.0328344"/>
<path d="M68.8372 25.6954C68.8372 26.7461 68.8372 27.7311 69.0998 27.9938C69.3625 28.2565 69.5924 28.4863 70.3804 28.4863H72.1863V29.7668C70.6431 29.7668 69.0998 29.7668 67.0641 29.7668C65.0284 29.7668 63.4851 29.7668 61.9419 29.7668V28.4863H63.7478C64.503 28.4863 64.7985 28.2236 65.0284 27.9938C65.291 27.5013 65.291 26.7132 65.291 25.6954V16.4361C65.291 15.1555 65.291 14.1376 65.0284 13.8421C64.7657 13.5466 64.2732 13.3496 63.4851 13.3496H62.2046V12.2989C64.503 12.0362 67.0969 11.2482 68.6402 10.493L68.9028 10.7557V14.3347L71.9893 11.7407C73.04 10.9855 73.7952 10.69 75.3384 10.69C80.2307 10.69 82.0038 13.2839 82.0038 17.8479V25.7939C82.0038 26.8446 82.0038 27.8296 82.2664 28.0923C82.5291 28.355 82.759 28.5848 83.547 28.5848H85.3529V29.8653C84.3022 29.8653 83.0545 29.8653 82.0038 29.8653C80.9531 29.8653 79.7054 29.8653 78.6547 29.8653V18.3076C78.6547 14.9585 76.6189 13.1854 74.025 13.1854C71.4311 13.1854 68.9028 15.2212 68.9028 17.0271L68.8372 25.6954Z" stroke="white" stroke-width="0.0328344"/>
<path d="M102.46 17.9793C102.46 18.4718 102.46 19.03 102.46 19.7852C99.8658 20.2777 97.5674 20.2777 95.0063 20.2777H89.0961C89.0961 25.17 91.3945 28.4863 96.5495 28.4863C98.5852 28.4863 100.128 27.4356 101.672 26.4506L102.164 26.9431L101.409 28.2236C101.146 28.7161 97.5674 30.522 94.7436 30.522C88.5707 30.522 85.2544 26.6804 85.2544 21.0329C85.2544 16.8957 86.3051 14.5973 88.3409 13.0869C89.0961 12.5944 89.8841 11.8064 90.9348 11.5437C92.478 10.7885 93.5287 10.493 95.0719 10.493C99.1434 10.5259 102.46 13.3825 102.46 17.9793ZM89.1289 18.242V18.7345C90.9348 18.9971 92.7079 18.9971 94.2511 18.9971C95.7943 18.9971 97.3375 18.9971 98.8807 18.9971C98.8807 15.1555 97.6002 12.0691 94.5138 12.0691C91.4273 11.8392 89.1289 14.1705 89.1289 18.242Z" stroke="white" stroke-width="0.0328344"/>
<path d="M106.302 4.38603C106.302 3.33532 106.302 2.58013 105.251 2.58013H102.952V1.56226C104.988 1.29959 107.319 0.80707 109.388 0.019043L109.651 0.28172V25.6956C109.651 26.7463 109.651 27.7313 109.913 27.994C110.176 28.2567 110.406 28.4865 111.194 28.4865H113V29.7671C111.457 29.7671 109.913 29.7671 107.878 29.7671C105.842 29.7671 104.299 29.7671 102.755 29.7671V28.4865H104.561C105.316 28.4865 105.612 28.2238 105.842 27.994C106.104 27.5015 106.105 26.7135 106.105 25.6956V4.38603H106.302Z" stroke="white" stroke-width="0.0328344"/>
<path d="M116.612 4.38603C116.612 3.33532 116.612 2.58013 115.561 2.58013H113.262V1.56226C115.298 1.29959 117.629 0.80707 119.698 0.019043L119.961 0.28172V25.6956C119.961 26.7463 119.961 27.7313 120.223 27.994C120.486 28.2567 120.716 28.4865 121.504 28.4865H123.31V29.7671C121.767 29.7671 120.223 29.7671 118.188 29.7671C116.152 29.7671 114.609 29.7671 113.065 29.7671V28.4865H114.871C115.627 28.4865 115.922 28.2238 116.152 27.994C116.415 27.5015 116.415 26.7135 116.415 25.6956V4.38603H116.612Z" stroke="white" stroke-width="0.0328344"/>
<path d="M135.853 6.45457C135.853 4.91136 135.853 3.86066 135.59 3.36814C135.327 2.87562 134.835 2.87562 133.784 2.87562H131.748V1.56224C133.784 1.56224 135.885 1.56224 137.921 1.56224C139.727 1.56224 141.763 1.56224 143.831 1.56224V2.84279H141.796C140.745 2.84279 140.252 3.10546 139.99 3.3353C139.727 3.82782 139.727 4.87852 139.727 6.42174V20.5406C139.727 26.4508 142.814 27.994 148.198 27.994C152.565 27.994 156.67 26.1881 156.67 19.5227V6.42174C156.67 4.87852 156.67 3.82782 156.407 3.3353C156.144 2.84279 155.652 2.84279 154.601 2.84279H152.795V1.59508C154.338 1.59508 156.144 1.59508 157.688 1.59508C159.231 1.59508 160.774 1.59508 162.58 1.59508V2.87562H160.807C159.756 2.87562 159.264 3.1383 159.001 3.36814C158.738 3.86066 158.738 4.91136 158.738 6.45457V18.2421C158.738 26.9433 155.389 30.5879 147.181 30.5879C140.252 30.5879 136.148 28.5522 136.148 21.0987V6.45457H135.853Z" stroke="white" stroke-width="0.0328344"/>
<path d="M167.932 25.6954C167.932 26.7461 167.932 27.7311 168.194 27.9938C168.457 28.2565 168.687 28.4863 169.475 28.4863H171.281V29.7668C169.738 29.7668 168.194 29.7668 166.159 29.7668C164.123 29.7668 162.58 29.7668 161.036 29.7668V28.4863H162.842C163.597 28.4863 163.893 28.2236 164.123 27.9938C164.386 27.5013 164.386 26.7132 164.386 25.6954V16.4361C164.386 15.1555 164.386 14.1376 164.123 13.8421C163.86 13.5466 163.368 13.3496 162.58 13.3496H161.036V12.2989C163.335 12.0362 165.929 11.2482 167.472 10.493L167.735 10.7557V14.3347L170.821 11.7407C171.872 10.9855 172.627 10.69 174.17 10.69C179.063 10.69 180.836 13.2839 180.836 17.8479V25.7939C180.836 26.8446 180.836 27.8296 181.098 28.0923C181.361 28.355 181.591 28.5848 182.379 28.5848H184.185V29.8653C183.134 29.8653 181.886 29.8653 180.836 29.8653C179.785 29.8653 178.537 29.8653 177.486 29.8653V18.3076C177.486 14.9585 175.451 13.1854 172.857 13.1854C170.263 13.1854 167.735 15.2212 167.735 17.0271V25.5969H167.932V25.6954Z" stroke="white" stroke-width="0.0328344"/>
<path d="M192.591 25.6956C192.591 26.7463 192.591 27.7313 192.853 27.994C193.116 28.2567 193.346 28.4865 194.134 28.4865H195.94V29.767C194.397 29.767 192.853 29.767 190.818 29.767C188.782 29.767 187.239 29.767 185.695 29.767V28.4865H187.501C188.256 28.4865 188.552 28.2238 188.782 27.994C189.045 27.5015 189.045 26.7134 189.045 25.6956V16.4363C189.045 15.1557 189.045 14.1378 188.782 13.8423C188.519 13.5468 188.027 13.3498 187.239 13.3498H185.695V12.2991C187.994 12.0364 190.588 11.2484 192.131 10.4932L192.394 10.7559V25.6627H192.591V25.6956ZM192.853 3.86066C192.853 5.1412 191.803 6.15907 190.555 6.15907C189.274 6.15907 188.256 5.10836 188.256 3.86066C188.256 2.61295 189.307 1.56224 190.555 1.56224C191.803 1.56224 192.853 2.58011 192.853 3.86066Z" stroke="white" stroke-width="0.0328344"/>
<path d="M207.99 25.6958C207.234 27.2391 206.939 28.7823 206.184 30.0628H204.148L196.924 13.3829C196.662 12.8904 196.432 12.1024 195.644 12.1024H194.363V11.0517C195.907 11.0517 197.45 11.0517 199.256 11.0517C200.799 11.0517 202.342 11.0517 204.148 11.0517V12.1024H202.112C201.357 12.1024 201.062 12.3651 201.062 12.8576C201.062 13.1202 201.062 13.6128 201.324 14.4008L206.217 26.1884C206.972 24.3825 208.022 22.3467 208.81 20.508L210.616 16.141C211.109 14.8605 211.372 13.8426 211.372 13.0546C211.372 12.2994 211.109 12.0039 210.321 12.0039H208.515V10.9532C209.796 10.9532 211.109 10.9532 212.357 10.9532C213.604 10.9532 214.951 10.9532 216.198 10.9532V12.0039H214.918C213.867 12.0039 213.112 13.5471 212.619 14.8276L207.99 25.6958Z" stroke="white" stroke-width="0.0328344"/>
<path d="M232.615 17.9793C232.615 18.4718 232.615 19.03 232.615 19.7852C230.022 20.2777 227.723 20.2777 225.162 20.2777H219.252C219.252 25.17 221.55 28.4863 226.705 28.4863C228.741 28.4863 230.284 27.4356 231.827 26.4506L232.32 26.9431L231.565 28.2236C231.302 28.7161 227.723 30.522 224.899 30.522C218.727 30.522 215.41 26.6804 215.41 21.0329C215.41 16.8957 216.461 14.5973 218.497 13.0869C219.252 12.5944 220.04 11.8064 221.091 11.5437C222.634 10.7885 223.685 10.493 225.228 10.493C229.299 10.5259 232.615 13.3825 232.615 17.9793ZM219.022 18.242V18.7345C220.828 18.9971 222.601 18.9971 224.144 18.9971C225.687 18.9971 227.231 18.9971 228.774 18.9971C228.774 15.1555 227.493 12.0691 224.407 12.0691C221.616 11.8392 219.022 14.1705 219.022 18.242Z" stroke="white" stroke-width="0.0328344"/>
<path d="M237.245 16.4361C237.245 15.1555 237.245 14.1376 236.983 13.8421C236.72 13.5795 236.227 13.3496 235.439 13.3496H233.896V12.2989C236.195 12.0362 238.788 11.2482 240.332 10.493L240.594 10.7557V14.8928L242.893 12.2989C243.943 11.0184 245.191 10.493 246.242 10.493C246.997 10.493 247.785 10.7557 248.048 10.9855L247.785 15.8779H247.03C246.537 14.8272 245.749 14.072 244.206 14.072C242.4 14.072 240.627 15.8779 240.627 18.7016V25.8595C240.627 26.9102 240.627 27.8953 240.89 28.158C241.153 28.4206 241.645 28.6505 242.696 28.6505H244.732V29.931C242.696 29.931 240.89 29.931 238.821 29.931C236.753 29.931 235.242 29.931 233.699 29.931V28.6505H235.505C236.26 28.6505 236.556 28.3878 236.786 28.158C237.048 27.6654 237.048 26.8774 237.048 25.8595V16.3704H237.212L237.245 16.4361Z" stroke="white" stroke-width="0.0328344"/>
<path d="M251.364 25.7289C251.364 28.3228 254.188 29.3078 256.749 29.3078C259.343 29.3078 261.641 27.7646 261.641 25.4662C261.641 24.1857 260.886 23.1678 259.605 22.6424C257.8 22.1499 255.468 21.5917 253.433 21.0992C251.397 20.344 249.854 19.0635 249.854 16.7322C249.854 12.3653 253.695 10.822 257.57 10.822C259.605 10.822 261.149 11.3146 262.955 11.8727C262.955 13.416 262.692 14.9592 262.692 16.5024H261.641V15.4517C261.641 13.416 259.343 12.1026 256.749 12.1026C253.17 12.1026 252.612 14.1383 252.612 15.4517C252.612 17.2576 253.892 18.2755 256.979 18.8008C261.871 19.556 264.137 20.8365 264.137 23.923C264.137 28.5526 259.507 30.851 255.14 30.851C253.104 30.851 251.298 30.5884 249.46 29.8003C249.952 27.9945 249.952 25.9587 249.952 24.12H251.233V23.8573H251.364V25.7289Z" stroke="white" stroke-width="0.0328344"/>
<path d="M272.674 25.6956C272.674 26.7463 272.674 27.7313 272.937 27.994C273.2 28.2567 273.43 28.4865 274.218 28.4865H276.023V29.767C274.48 29.767 272.937 29.767 270.901 29.767C268.866 29.767 267.322 29.767 265.779 29.767V28.4865H267.585C268.34 28.4865 268.636 28.2238 268.866 27.994C269.128 27.5015 269.128 26.7134 269.128 25.6956V16.4363C269.128 15.1557 269.128 14.1378 268.866 13.8423C268.603 13.5468 268.11 13.3498 267.322 13.3498H265.779V12.2991C268.078 12.0364 270.671 11.2484 272.215 10.4932L272.477 10.7559V25.6627H272.674V25.6956ZM273.2 3.86066C273.2 5.1412 272.149 6.15907 270.901 6.15907C269.621 6.15907 268.603 5.10836 268.603 3.86066C268.603 2.61295 269.654 1.56224 270.901 1.56224C271.919 1.56224 273.2 2.58011 273.2 3.86066Z" stroke="white" stroke-width="0.0328344"/>
<path d="M275.498 14.4009V13.6457L278.584 12.1025V9.27871C278.584 8.228 278.584 7.24297 278.322 5.92959C279.865 5.43707 281.145 4.87889 281.901 4.38637L282.393 4.87889C282.13 6.68478 281.901 9.01603 281.901 10.7891V12.3323L287.581 12.0696L287.318 14.368H282.196V25.1706C282.196 26.9765 282.689 27.9943 284.495 27.9943C285.545 27.9943 286.3 27.5018 286.793 27.2391L287.285 27.9943L285.25 30.0301C284.987 30.5226 283.444 30.5226 282.656 30.5226C280.62 30.5226 278.519 29.4719 278.519 26.1556V14.368L275.498 14.4009Z" stroke="white" stroke-width="0.0328344"/>
<path d="M304.26 14.4003C304.523 13.9078 304.523 13.6451 304.523 13.3496C304.523 12.5944 304.031 12.2989 302.717 12.2989H301.666V11.2482C302.947 11.2482 304.26 11.2482 305.508 11.2482C306.789 11.2482 308.102 11.2482 309.35 11.2482V12.2989H308.299C307.248 12.2989 306.493 13.5795 304.95 17.1913L296.741 36.4651C295.461 39.5515 293.918 41.5873 290.568 41.5873C289.813 41.5873 289.025 41.3246 288.533 41.0947L289.583 38.0083H290.076C290.568 38.5008 291.619 39.059 292.112 39.059C294.41 38.7963 295.691 35.4801 296.479 33.6742L297.529 31.0802L290.864 14.4003C290.109 12.8571 289.583 12.3646 288.828 12.3646H288.073V11.3139C289.616 11.3139 291.159 11.3139 292.965 11.3139C294.509 11.3139 296.052 11.3139 297.858 11.3139V12.3646H296.314C295.559 12.3646 295.034 12.6273 295.034 13.4153C295.034 13.9078 295.034 14.466 295.297 14.9585L299.926 26.2536L304.26 14.4003Z" stroke="white" stroke-width="0.0328344"/>
</svg>
