<svg width="156" height="56" viewBox="0 0 156 56" fill="none" xmlns="http://www.w3.org/2000/svg">
<path d="M140.454 45.5596C138.315 45.5596 136.396 45.1591 134.695 44.358C133.037 43.556 131.706 42.4801 130.703 41.1302C129.742 39.7388 129.262 38.1357 129.262 36.3209C129.262 33.9591 130.048 32.0397 131.618 30.5628C133.189 29.0859 135.436 28.0735 138.359 27.5256L146.017 26.0076C147.543 25.712 148.591 25.248 149.158 24.6154C149.726 23.9828 150.009 23.0546 150.009 21.8309L150.793 29.2341L139.799 31.513C138.316 31.8068 137.16 32.334 136.331 33.0944C135.546 33.8549 135.153 34.9093 135.153 36.2574C135.153 37.6496 135.698 38.7679 136.789 39.6122C137.923 40.4548 139.45 40.8765 141.369 40.8774C142.941 40.8774 144.381 40.5399 145.69 39.865C147.041 39.1909 148.088 38.2628 148.831 37.0806C149.616 35.8569 150.009 34.4646 150.009 32.9039V21.8309C150.009 20.3117 149.442 19.1303 148.307 18.2869C147.216 17.4011 145.711 16.9581 143.791 16.9581C141.348 16.9581 139.472 17.5488 138.163 18.7302C136.854 19.9115 136.091 21.5777 135.872 23.7287L130.113 22.9704C130.331 20.7338 131.029 18.8144 132.208 17.2122C133.386 15.5668 134.956 14.3007 136.919 13.4141C138.883 12.5291 141.217 12.0867 143.922 12.0867C147.761 12.0867 150.706 13.0356 152.757 14.9333C154.808 16.8311 155.833 19.2781 155.833 22.2743V44.6094H150.14V40.4976C149.572 41.889 148.416 43.0911 146.672 44.1039C144.969 45.0744 142.896 45.5596 140.454 45.5596ZM82.8605 44.6107V13.0356H88.5536V16.5796C88.9899 15.3559 89.95 14.3012 91.4339 13.4154C92.9178 12.5296 94.6406 12.0867 96.6024 12.0867C98.5243 12.0867 100.292 12.4872 101.905 13.2883C103.519 14.0903 104.566 15.2928 105.046 16.8959C105.613 15.4181 106.661 14.258 108.189 13.4154C109.758 12.5296 111.503 12.0867 113.422 12.0867C116.739 12.0867 119.27 13.0148 121.015 14.8711C122.76 16.7265 123.633 19.4263 123.633 22.9704V44.6107H117.807V23.7287C117.807 21.6201 117.328 20.0386 116.369 18.9843C115.451 17.8867 114.098 17.338 112.31 17.338C110.347 17.338 108.82 18.0129 107.729 19.3628C106.681 20.672 106.158 22.5914 106.158 25.1209V44.6107H100.335V23.7287C100.335 21.6201 99.8541 20.0386 98.8931 18.9843C97.978 17.8867 96.6258 17.338 94.8363 17.338C92.8728 17.338 91.3456 18.0129 90.2548 19.3628C89.2072 20.672 88.6834 22.5914 88.6834 25.1209V44.6107H82.8605ZM60.588 56C56.5303 56 53.2361 55.093 50.7056 53.2791C48.175 51.4651 46.5604 48.9343 45.8618 45.6867L51.5562 44.4837C52.0366 46.5509 53.0621 48.154 54.6326 49.293C56.203 50.4743 58.1882 51.065 60.588 51.065C63.4666 51.065 65.6262 50.3477 67.0668 48.9132C68.5498 47.5218 69.2913 45.4339 69.2913 42.6494V37.6496C68.6377 39.2095 67.4161 40.4756 65.6266 41.4478C63.8813 42.4174 61.9182 42.9022 59.7374 42.9022C56.8571 42.9022 54.3265 42.2696 52.1457 41.0044C49.9641 39.6952 48.2624 37.8812 47.0409 35.5626C45.8193 33.2422 45.2085 30.5632 45.2085 27.5256C45.2085 24.4464 45.8189 21.7467 47.0396 19.4263C48.262 17.1059 49.942 15.3131 52.0795 14.048C54.2612 12.7404 56.8138 12.0867 59.7374 12.0867C61.9191 12.0867 63.9042 12.5715 65.6928 13.5411C67.5239 14.4693 68.7671 15.6294 69.4224 17.0217V13.0356H75.1169V42.6481C75.1169 45.4309 74.5498 47.8143 73.4157 49.7985C72.2816 51.8233 70.6237 53.3629 68.442 54.4172C66.3036 55.4715 63.6856 56 60.588 56ZM60.4568 37.9024C63.2489 37.9024 65.4738 36.9531 67.1317 35.0544C68.8329 33.1567 69.6839 30.6466 69.6848 27.5243C69.6848 24.3613 68.8337 21.8305 67.1317 19.9319C65.4297 18.0332 63.2047 17.0839 60.4568 17.0839C57.6648 17.0839 55.4178 18.0332 53.7157 19.9319C52.0579 21.8305 51.2289 24.3613 51.2289 27.5243C51.2289 30.6457 52.0795 33.1562 53.7807 35.0557C55.4827 36.9527 57.709 37.9015 60.4568 37.9024ZM33.4535 44.6107V13.0356H39.2791V44.6107H33.4535ZM33.3886 8.98593V0H39.344V8.98593H33.3886ZM0 44.6107V0H6.15152V44.6107H0ZM1.24407 25.7535V20.3752H26.3086V25.7548L1.24407 25.7535ZM1.24407 5.44185V0H28.7305V5.44185H1.24407Z" fill="white"/>
</svg>
