<svg width="109" height="40" viewBox="0 0 109 40" fill="none" xmlns="http://www.w3.org/2000/svg">
<path d="M98.2426 31.9243C96.7469 31.9243 95.4041 31.6436 94.2142 31.0823C93.0545 30.5203 92.1238 29.7664 91.4219 28.8205C90.7498 27.8456 90.414 26.7223 90.4146 25.4506C90.4146 23.7956 90.9638 22.4507 92.0623 21.4158C93.1608 20.3809 94.7325 19.6715 96.7775 19.2875L102.134 18.2239C103.202 18.0168 103.934 17.6916 104.331 17.2483C104.728 16.8051 104.926 16.1547 104.926 15.2972L105.475 20.4847L97.7848 22.0816C96.7475 22.2875 95.9388 22.6569 95.3587 23.1898C94.8094 23.7226 94.5348 24.4614 94.5348 25.4061C94.5348 26.3816 94.9163 27.1652 95.6793 27.7569C96.4726 28.3473 97.5405 28.6428 98.883 28.6434C99.9821 28.6434 100.989 28.4069 101.905 27.934C102.85 27.4616 103.583 26.8113 104.102 25.9829C104.652 25.1254 104.926 24.1499 104.926 23.0562V15.2972C104.926 14.2327 104.529 13.4049 103.735 12.8139C102.972 12.1932 101.92 11.8828 100.577 11.8828C98.8681 11.8828 97.5559 12.2967 96.6403 13.1245C95.7247 13.9523 95.1906 15.1198 95.038 16.627L91.0096 16.0957C91.1622 14.5285 91.6505 13.1836 92.4747 12.0609C93.2989 10.9079 94.3973 10.0207 95.7701 9.39943C97.1435 8.77934 98.7764 8.4693 100.669 8.4693C103.354 8.4693 105.414 9.1342 106.848 10.464C108.283 11.7938 109 13.5084 109 15.6079V31.2585H105.018V28.3772C104.621 29.3522 103.812 30.1945 102.592 30.9042C101.401 31.5843 99.9509 31.9243 98.2426 31.9243ZM57.958 31.2594V9.1342H61.9402V11.6176C62.2454 10.7601 62.9169 10.021 63.9548 9.40034C64.9928 8.77965 66.1978 8.4693 67.57 8.4693C68.9143 8.4693 70.1506 8.74998 71.2787 9.31133C72.4081 9.87328 73.1405 10.7159 73.476 11.8392C73.8726 10.8037 74.6054 9.99076 75.6742 9.40034C76.772 8.77965 77.9922 8.4693 79.3347 8.4693C81.6546 8.4693 83.425 9.11967 84.6458 10.4204C85.8666 11.7205 86.477 13.6123 86.477 16.0957V31.2594H82.4022V16.627C82.4022 15.1495 82.0667 14.0413 81.3958 13.3025C80.7539 12.5335 79.8077 12.149 78.5572 12.149C77.1838 12.149 76.1156 12.6219 75.3526 13.5678C74.6199 14.4852 74.2535 15.8301 74.2535 17.6026V31.2594H70.1806V16.627C70.1806 15.1495 69.8445 14.0413 69.1723 13.3025C68.5322 12.5335 67.5864 12.149 66.3347 12.149C64.9613 12.149 63.8931 12.6219 63.1301 13.5678C62.3974 14.4852 62.031 15.8301 62.031 17.6026V31.2594H57.958ZM42.3792 39.24C39.541 39.24 37.2368 38.6045 35.4668 37.3334C33.6967 36.0623 32.5674 34.289 32.0787 32.0133L36.0617 31.1704C36.3978 32.6189 37.1151 33.7422 38.2136 34.5403C39.3121 35.3681 40.7006 35.782 42.3792 35.782C44.3927 35.782 45.9032 35.2794 46.9109 34.2741C47.9482 33.2992 48.4669 31.8362 48.4669 29.8851V26.3816C48.0097 27.4747 47.1552 28.3618 45.9035 29.0431C44.6827 29.7225 43.3096 30.0622 41.7842 30.0622C39.7696 30.0622 37.9995 29.6189 36.4741 28.7324C34.9481 27.815 33.7579 26.5439 32.9035 24.9192C32.049 23.2933 31.6218 21.4161 31.6218 19.2875C31.6218 17.13 32.0487 15.2382 32.9026 13.6123C33.7576 11.9864 34.9327 10.7301 36.4278 9.84361C37.9538 8.9274 39.7393 8.4693 41.7842 8.4693C43.3102 8.4693 44.6988 8.80902 45.9499 9.48845C47.2306 10.1388 48.1002 10.9518 48.5586 11.9273V9.1342H52.5416V29.8842C52.5416 31.8341 52.145 33.5042 51.3517 34.8945C50.5584 36.3134 49.3988 37.3921 47.8728 38.1309C46.3771 38.8697 44.5459 39.24 42.3792 39.24ZM42.2875 26.5588C44.2404 26.5588 45.7967 25.8936 46.9563 24.5632C48.1462 23.2334 48.7415 21.4745 48.7421 19.2866C48.7421 17.0703 48.1468 15.2969 46.9563 13.9665C45.7658 12.6361 44.2095 11.9709 42.2875 11.9709C40.3345 11.9709 38.7628 12.6361 37.5723 13.9665C36.4127 15.2969 35.8328 17.0703 35.8328 19.2866C35.8328 21.4739 36.4278 23.233 37.6177 24.5641C38.8082 25.8933 40.3654 26.5582 42.2875 26.5588ZM23.3996 31.2594V9.1342H27.4744V31.2594H23.3996ZM23.3542 6.29657V0H27.5198V6.29657H23.3542ZM0 31.2594V0H4.30278V31.2594H0ZM0.870183 18.0459V14.2772H18.4019V18.0468L0.870183 18.0459ZM0.870183 3.81318V0H20.096V3.81318H0.870183Z" fill="white"/>
</svg>
