<svg width="152" height="53" viewBox="0 0 152 53" fill="none" xmlns="http://www.w3.org/2000/svg">
<path d="M10.92 36.0383C12.0105 36.0383 12.2717 35.9942 12.9255 35.9942C15.0624 35.9942 16.5881 37.4078 16.5881 39.5295C16.5881 41.9155 14.4954 43.5508 11.487 43.5508C8.52235 43.5508 5.81888 42.0037 4.24904 39.529L0.456055 42.9761C2.54884 46.4231 6.60354 48.4997 11.3562 48.4997C17.7218 48.4997 22.0818 44.7437 22.0818 39.3966C22.0818 36.3919 20.7301 33.7401 18.5937 32.6795V32.5472C20.2066 31.3983 21.2972 29.1889 21.2972 26.7141C21.2972 24.6371 20.5125 22.8253 19.1608 21.4553H20.0327L22.0382 17.5665V17.3453H11.3998C5.60077 17.3453 1.45883 21.19 1.45883 26.6695C1.45883 32.1054 5.60077 36.0383 10.92 36.0383ZM6.82165 26.67C6.82165 24.1948 8.73995 22.2065 11.3562 22.2065C14.016 22.2065 15.978 24.2394 15.978 26.67C15.978 29.233 14.0155 31.1772 11.3562 31.1772C8.69633 31.1772 6.82165 29.2335 6.82165 26.67Z" fill="white"/>
<path d="M37.6465 17.3453C35.2047 17.3453 33.1555 18.2294 32.1533 19.7759H31.9352V17.3453H26.1361V39.6619H32.1092V27.1996C32.1092 24.3718 34.2456 22.4718 37.6465 22.4718V17.3453Z" fill="white"/>
<path d="M52.118 38.2478L52.2925 39.6619H57.7425V24.3277C57.7425 18.936 55.0827 16.7712 48.2809 16.7712C46.2317 16.7712 44.2698 16.9477 42.3515 17.4341L41.6536 22.4718C43.1798 21.8971 45.3598 21.4995 47.3217 21.4995C50.4173 21.4995 51.8126 22.5595 51.8126 24.7695V25.9625C50.5918 25.0789 48.8479 24.5483 46.8419 24.5483C41.9589 24.5483 38.558 27.686 38.558 32.3702C38.558 37.0548 41.9158 40.3249 46.7115 40.3249C48.9788 40.3249 50.8099 39.5737 51.8999 38.2478H52.118ZM44.2262 32.2819C44.2262 30.249 45.8833 28.7466 48.1936 28.7466C50.4609 28.7466 52.0744 30.249 52.0744 32.2819C52.0744 34.4031 50.4614 35.9055 48.1941 35.9055C45.8833 35.9055 44.2262 34.4031 44.2262 32.2819Z" fill="white"/>
<path d="M81.5355 39.662V24.0625C81.5355 19.6877 78.614 16.6825 74.1667 16.6825C71.5073 16.6825 69.2401 17.7877 68.1937 19.3783H68.0192V17.3454H62.1765V39.662H68.15V26.2719C68.15 23.4883 69.6763 21.7207 72.1175 21.7207C74.2975 21.7207 75.6056 23.1789 75.6056 25.8301V39.662H81.5355Z" fill="white"/>
<path d="M84.8435 28.4818C84.8435 35.4195 89.6828 40.3249 96.7027 40.3249C103.722 40.3249 108.562 35.4195 108.562 28.4813C108.562 21.5882 103.722 16.6829 96.7027 16.6829C89.6828 16.6829 84.8435 21.5877 84.8435 28.4818ZM90.3372 28.4372C90.3372 24.5488 92.9965 21.6759 96.7027 21.6759C100.408 21.6759 103.068 24.5483 103.068 28.4372C103.068 32.4589 100.408 35.3313 96.7027 35.3313C92.9965 35.3313 90.3372 32.4589 90.3372 28.4372Z" fill="white"/>
<path d="M118.074 8.50758H112.101V39.662H118.074V8.50758Z" fill="white"/>
<path d="M135.214 38.2478L135.389 39.6619H140.839V24.3277C140.839 18.936 138.179 16.7712 131.377 16.7712C129.328 16.7712 127.366 16.9477 125.448 17.4341L124.75 22.4718C126.276 21.8971 128.456 21.4995 130.418 21.4995C133.514 21.4995 134.909 22.5595 134.909 24.7695V25.9625C133.688 25.0789 131.944 24.5483 129.938 24.5483C125.055 24.5483 121.655 27.686 121.655 32.3702C121.655 37.0548 125.012 40.3249 129.808 40.3249C132.075 40.3249 133.906 39.5737 134.996 38.2478H135.214ZM127.323 32.2819C127.323 30.249 128.979 28.7466 131.29 28.7466C133.557 28.7466 135.17 30.249 135.17 32.2819C135.17 34.4031 133.557 35.9055 131.29 35.9055C128.979 35.9055 127.323 34.4031 127.323 32.2819Z" fill="url(#paint0_linear_275_57)"/>
<path d="M151.456 3.66152C151.456 1.83564 149.976 0.355469 148.15 0.355469C146.324 0.355469 144.844 1.83564 144.844 3.66152V48.9896C144.844 50.8155 146.324 52.2957 148.15 52.2957C149.976 52.2957 151.456 50.8155 151.456 48.9896V3.66152Z" fill="white"/>
<path d="M10.92 36.0383C12.0105 36.0383 12.2717 35.9942 12.9255 35.9942C15.0624 35.9942 16.5881 37.4078 16.5881 39.5295C16.5881 41.9155 14.4954 43.5508 11.487 43.5508C8.52235 43.5508 5.81888 42.0037 4.24904 39.529L0.456055 42.9761C2.54884 46.4231 6.60354 48.4997 11.3562 48.4997C17.7218 48.4997 22.0818 44.7437 22.0818 39.3966C22.0818 36.3919 20.7301 33.7401 18.5937 32.6795V32.5472C20.2066 31.3983 21.2972 29.1889 21.2972 26.7141C21.2972 24.6371 20.5125 22.8253 19.1608 21.4553H20.0327L22.0382 17.5665V17.3453H11.3998C5.60077 17.3453 1.45883 21.19 1.45883 26.6695C1.45883 32.1054 5.60077 36.0383 10.92 36.0383ZM6.82165 26.67C6.82165 24.1948 8.73995 22.2065 11.3562 22.2065C14.016 22.2065 15.978 24.2394 15.978 26.67C15.978 29.233 14.0155 31.1772 11.3562 31.1772C8.69633 31.1772 6.82165 29.2335 6.82165 26.67Z" stroke="white" stroke-width="0.711121"/>
<path d="M37.6465 17.3453C35.2047 17.3453 33.1555 18.2294 32.1533 19.7759H31.9352V17.3453H26.1361V39.6619H32.1092V27.1996C32.1092 24.3718 34.2456 22.4718 37.6465 22.4718V17.3453Z" stroke="white" stroke-width="0.711121"/>
<path d="M52.118 38.2478L52.2925 39.6619H57.7425V24.3277C57.7425 18.936 55.0827 16.7712 48.2809 16.7712C46.2317 16.7712 44.2698 16.9477 42.3515 17.4341L41.6536 22.4718C43.1798 21.8971 45.3598 21.4995 47.3217 21.4995C50.4173 21.4995 51.8126 22.5595 51.8126 24.7695V25.9625C50.5918 25.0789 48.8479 24.5483 46.8419 24.5483C41.9589 24.5483 38.558 27.686 38.558 32.3702C38.558 37.0548 41.9158 40.3249 46.7115 40.3249C48.9788 40.3249 50.8099 39.5737 51.8999 38.2478H52.118ZM44.2262 32.2819C44.2262 30.249 45.8833 28.7466 48.1936 28.7466C50.4609 28.7466 52.0744 30.249 52.0744 32.2819C52.0744 34.4031 50.4614 35.9055 48.1941 35.9055C45.8833 35.9055 44.2262 34.4031 44.2262 32.2819Z" stroke="white" stroke-width="0.711121"/>
<path d="M81.5355 39.662V24.0625C81.5355 19.6877 78.614 16.6825 74.1667 16.6825C71.5073 16.6825 69.2401 17.7877 68.1937 19.3783H68.0192V17.3454H62.1765V39.662H68.15V26.2719C68.15 23.4883 69.6763 21.7207 72.1175 21.7207C74.2975 21.7207 75.6056 23.1789 75.6056 25.8301V39.662H81.5355Z" stroke="white" stroke-width="0.711121"/>
<path d="M84.8435 28.4818C84.8435 35.4195 89.6828 40.3249 96.7027 40.3249C103.722 40.3249 108.562 35.4195 108.562 28.4813C108.562 21.5882 103.722 16.6829 96.7027 16.6829C89.6828 16.6829 84.8435 21.5877 84.8435 28.4818ZM90.3372 28.4372C90.3372 24.5488 92.9965 21.6759 96.7027 21.6759C100.408 21.6759 103.068 24.5483 103.068 28.4372C103.068 32.4589 100.408 35.3313 96.7027 35.3313C92.9965 35.3313 90.3372 32.4589 90.3372 28.4372Z" stroke="white" stroke-width="0.711121"/>
<path d="M118.074 8.50758H112.101V39.662H118.074V8.50758Z" stroke="white" stroke-width="0.711121"/>
<path d="M135.214 38.2478L135.389 39.6619H140.839V24.3277C140.839 18.936 138.179 16.7712 131.377 16.7712C129.328 16.7712 127.366 16.9477 125.448 17.4341L124.75 22.4718C126.276 21.8971 128.456 21.4995 130.418 21.4995C133.514 21.4995 134.909 22.5595 134.909 24.7695V25.9625C133.688 25.0789 131.944 24.5483 129.938 24.5483C125.055 24.5483 121.655 27.686 121.655 32.3702C121.655 37.0548 125.012 40.3249 129.808 40.3249C132.075 40.3249 133.906 39.5737 134.996 38.2478H135.214ZM127.323 32.2819C127.323 30.249 128.979 28.7466 131.29 28.7466C133.557 28.7466 135.17 30.249 135.17 32.2819C135.17 34.4031 133.557 35.9055 131.29 35.9055C128.979 35.9055 127.323 34.4031 127.323 32.2819Z" stroke="white" stroke-width="0.711121"/>
<path d="M151.456 3.66152C151.456 1.83564 149.976 0.355469 148.15 0.355469C146.324 0.355469 144.844 1.83564 144.844 3.66152V48.9896C144.844 50.8155 146.324 52.2957 148.15 52.2957C149.976 52.2957 151.456 50.8155 151.456 48.9896V3.66152Z" stroke="white" stroke-width="0.711121"/>
<defs>
<linearGradient id="paint0_linear_275_57" x1="-384.087" y1="-17.8673" x2="-384.087" y2="70.3227" gradientUnits="userSpaceOnUse">
<stop stop-color="white"/>
<stop offset="1" stop-color="white"/>
</linearGradient>
</defs>
</svg>
