<svg width="163" height="56" viewBox="0 0 163 56" fill="none" xmlns="http://www.w3.org/2000/svg">
<path d="M11.2818 38.4719C12.4576 38.4719 12.7392 38.4244 13.4441 38.4244C15.7481 38.4244 17.393 39.9485 17.393 42.236C17.393 44.8085 15.1367 46.5716 11.8932 46.5716C8.69678 46.5716 5.782 44.9036 4.08945 42.2355L0 45.952C2.25636 49.6684 6.628 51.9073 11.7521 51.9073C18.6153 51.9073 23.3161 47.8578 23.3161 42.0927C23.3161 38.8531 21.8587 35.9941 19.5553 34.8506V34.7079C21.2943 33.4692 22.4701 31.0871 22.4701 28.4189C22.4701 26.1795 21.6241 24.2261 20.1667 22.7491H21.1068L23.2691 18.5562V18.3178H11.7991C5.54685 18.3178 1.08115 22.463 1.08115 28.3708C1.08115 34.2316 5.54684 38.4719 11.2818 38.4719ZM6.86315 28.3714C6.86315 25.7027 8.93139 23.559 11.7521 23.559C14.6199 23.559 16.7351 25.7508 16.7351 28.3714C16.7351 31.1347 14.6193 33.2308 11.7521 33.2308C8.88436 33.2308 6.86315 31.1352 6.86315 28.3714Z" fill="white"/>
<path d="M40.0973 18.3178C37.4647 18.3178 35.2554 19.271 34.1748 20.9384H33.9396V18.3178H27.6873V42.3787H34.1272V28.9423C34.1272 25.8935 36.4306 23.845 40.0973 23.845V18.3178Z" fill="white"/>
<path d="M55.7 40.8541L55.8881 42.3788H61.7642V25.846C61.7642 20.0328 58.8964 17.6988 51.563 17.6988C49.3536 17.6988 47.2383 17.8891 45.1701 18.4135L44.4176 23.845C46.0631 23.2254 48.4136 22.7967 50.5288 22.7967C53.8663 22.7967 55.3708 23.9396 55.3708 26.3223V27.6085C54.0545 26.6559 52.1743 26.0839 50.0115 26.0839C44.7468 26.0839 41.0801 29.4668 41.0801 34.517C41.0801 39.5679 44.7004 43.0935 49.871 43.0935C52.3154 43.0935 54.2896 42.2836 55.4648 40.8541H55.7ZM47.1913 34.4219C47.1913 32.2301 48.9779 30.6103 51.4689 30.6103C53.9134 30.6103 55.6529 32.2301 55.6529 34.4219C55.6529 36.7089 53.9139 38.3287 51.4694 38.3287C48.9779 38.3287 47.1913 36.7089 47.1913 34.4219Z" fill="white"/>
<path d="M87.4169 42.3788V25.56C87.4169 20.8433 84.267 17.6031 79.472 17.6031C76.6048 17.6031 74.1604 18.7948 73.0322 20.5097H72.8441V18.3179H66.5447V42.3788H72.9851V27.9422C72.9851 24.941 74.6307 23.0351 77.2627 23.0351C79.6131 23.0351 81.0235 24.6074 81.0235 27.4658V42.3788H87.4169Z" fill="white"/>
<path d="M90.9834 30.3248C90.9834 37.8048 96.201 43.0935 103.77 43.0935C111.338 43.0935 116.556 37.8048 116.556 30.3242C116.556 22.8923 111.338 17.6036 103.77 17.6036C96.201 17.6036 90.9834 22.8918 90.9834 30.3248ZM96.9065 30.2766C96.9065 26.0844 99.7737 22.9869 103.77 22.9869C107.765 22.9869 110.633 26.0838 110.633 30.2766C110.633 34.6127 107.765 37.7096 103.77 37.7096C99.7737 37.7096 96.9065 34.6127 96.9065 30.2766Z" fill="white"/>
<path d="M126.811 8.78931H120.371V42.3788H126.811V8.78931Z" fill="white"/>
<path d="M145.291 40.8541L145.479 42.3788H151.355V25.846C151.355 20.0328 148.488 17.6988 141.155 17.6988C138.945 17.6988 136.83 17.8891 134.761 18.4135L134.009 23.845C135.655 23.2254 138.005 22.7967 140.12 22.7967C143.458 22.7967 144.962 23.9396 144.962 26.3223V27.6085C143.646 26.6559 141.765 26.0839 139.603 26.0839C134.338 26.0839 130.672 29.4668 130.672 34.517C130.672 39.5679 134.291 43.0935 139.462 43.0935C141.907 43.0935 143.881 42.2836 145.056 40.8541H145.291ZM136.783 34.4219C136.783 32.2301 138.569 30.6103 141.061 30.6103C143.505 30.6103 145.244 32.2301 145.244 34.4219C145.244 36.7089 143.505 38.3287 141.061 38.3287C138.569 38.3287 136.783 36.7089 136.783 34.4219Z" fill="url(#paint0_linear_248_16)"/>
<path d="M162.803 3.56446C162.803 1.59586 161.207 0 159.238 0C157.27 0 155.674 1.59586 155.674 3.56446V52.4355C155.674 54.4041 157.27 56 159.238 56C161.207 56 162.803 54.4041 162.803 52.4355V3.56446Z" fill="white"/>
<defs>
<linearGradient id="paint0_linear_248_16" x1="-414.6" y1="-19.6471" x2="-414.6" y2="75.4361" gradientUnits="userSpaceOnUse">
<stop stop-color="white"/>
<stop offset="1" stop-color="white"/>
</linearGradient>
</defs>
</svg>
