<svg width="175" height="39" viewBox="0 0 175 39" fill="none" xmlns="http://www.w3.org/2000/svg">
<mask id="mask0_275_85" style="mask-type:luminance" maskUnits="userSpaceOnUse" x="0" y="0" width="175" height="39">
<path d="M0 0H174.958V39H0V0Z" fill="white"/>
</mask>
<g mask="url(#mask0_275_85)">
<path d="M87.6761 9.75C80.8956 9.75 76.0069 14.118 76.0069 20.748C76.0069 27.378 81.5264 31.746 88.3069 31.746C92.4069 31.746 96.0336 30.108 98.2413 27.456L93.511 24.726C92.2495 26.052 90.3572 26.832 88.2282 26.832C85.311 26.832 82.7879 25.272 81.8418 22.854H99.1087C99.2667 22.152 99.3454 21.45 99.3454 20.748C99.3454 14.118 94.4567 9.75 87.6761 9.75ZM81.8418 18.564C82.63 16.146 84.6802 14.586 87.6761 14.586C90.5933 14.586 92.7223 16.146 93.511 18.564H81.8418ZM80.4223 3.042L63.392 32.292L46.2824 3.042H52.6689L63.3128 21.294L74.0359 3.042H80.4223ZM22.7865 0L43.7597 32.292H3.09863L22.7865 0ZM124.103 20.748C124.103 24.414 126.547 26.832 130.253 26.832C132.776 26.832 134.668 25.662 135.693 23.868L140.424 26.598C138.453 29.796 134.826 31.746 130.253 31.746C123.472 31.746 118.583 27.378 118.583 20.748C118.583 14.118 123.472 9.75 130.253 9.75C134.747 9.75 138.453 11.7 140.424 14.898L135.693 17.628C134.747 15.756 132.776 14.664 130.253 14.664C126.547 14.664 124.103 17.082 124.103 20.748ZM174.958 3.042V31.044H169.439V3.042H174.958ZM153.985 9.75C147.205 9.75 142.316 14.118 142.316 20.748C142.316 27.378 147.836 31.746 154.616 31.746C158.716 31.746 162.343 30.108 164.55 27.456L159.82 24.726C158.558 26.052 156.666 26.832 154.537 26.832C151.62 26.832 149.097 25.272 148.151 22.854H165.418C165.574 22.1626 165.654 21.4564 165.655 20.748C165.733 14.118 160.766 9.75 153.985 9.75ZM148.151 18.564C148.939 16.146 150.989 14.586 153.985 14.586C156.981 14.586 159.031 16.146 159.82 18.564H148.151ZM116.77 10.374V16.302C116.14 16.146 115.509 15.99 114.799 15.99C111.251 15.99 108.649 18.408 108.649 22.074V31.122H103.13V10.374H108.649V15.99C108.649 12.87 112.276 10.374 116.77 10.374Z" fill="white"/>
</g>
</svg>
