<svg width="251" height="56" viewBox="0 0 251 56" fill="none" xmlns="http://www.w3.org/2000/svg">
<path d="M125.783 14C116.055 14 109.042 20.272 109.042 29.792C109.042 39.312 116.96 45.584 126.688 45.584C132.57 45.584 137.773 43.232 140.94 39.424L134.154 35.504C132.344 37.408 129.629 38.528 126.575 38.528C122.39 38.528 118.77 36.288 117.413 32.816H142.184C142.411 31.808 142.524 30.8 142.524 29.792C142.524 20.272 135.51 14 125.783 14ZM117.413 26.656C118.543 23.184 121.485 20.944 125.783 20.944C129.968 20.944 133.022 23.184 134.154 26.656H117.413ZM115.376 4.368L90.9439 46.368L66.3981 4.368H75.5603L90.8303 30.576L106.214 4.368H115.376ZM32.6901 0L65.3802 56H0L32.6901 0ZM178.042 29.792C178.042 35.056 181.548 38.528 186.864 38.528C190.484 38.528 193.199 36.848 194.669 34.272L201.456 38.192C198.628 42.784 193.425 45.584 186.864 45.584C177.137 45.584 170.123 39.312 170.123 29.792C170.123 20.272 177.137 14 186.864 14C193.312 14 198.628 16.8 201.456 21.392L194.669 25.312C193.312 22.624 190.484 21.056 186.864 21.056C181.548 21.056 178.042 24.528 178.042 29.792ZM251 4.368V44.576H243.082V4.368H251ZM220.912 14C211.184 14 204.171 20.272 204.171 29.792C204.171 39.312 212.089 45.584 221.817 45.584C227.699 45.584 232.902 43.232 236.069 39.424L229.282 35.504C227.472 37.408 224.757 38.528 221.704 38.528C217.519 38.528 213.899 36.288 212.542 32.816H237.313C237.538 31.8232 237.652 30.8092 237.653 29.792C237.766 20.272 230.639 14 220.912 14ZM212.542 26.656C213.672 23.184 216.614 20.944 220.912 20.944C225.21 20.944 228.151 23.184 229.282 26.656H212.542ZM167.522 14.896V23.408C166.617 23.184 165.712 22.96 164.694 22.96C159.604 22.96 155.871 26.432 155.871 31.696V44.688H147.953V14.896H155.871V22.96C155.871 18.48 161.075 14.896 167.522 14.896Z" fill="white"/>
</svg>
