<svg width="75" height="32" viewBox="0 0 75 32" fill="none" xmlns="http://www.w3.org/2000/svg">
<g clip-path="url(#clip0_275_46)">
<path d="M24.6398 6.72022L17.0972 19.4287V27.9775C17.9655 30.0345 20.1599 30.3085 22.263 30.4002V31.5887H7.49708V30.4002C9.6 30.3085 12.16 29.9889 12.8456 28.6177V19.7944L5.16562 6.81146C3.84015 4.61715 2.56015 3.88606 0 3.70299V2.51453H12.8458V3.70299C10.4228 3.84 9.64577 4.29752 8.96015 4.84629L16.0915 17.1886L23.0858 4.89161C22.3544 4.34314 21.3945 3.84 18.9716 3.70314V2.51468H29.9428V3.70314C27.4742 3.79468 25.9199 4.61715 24.6398 6.72022ZM39.6339 32.0001C37.1656 32.0001 35.9769 30.3085 35.8855 29.1204C34.331 30.7659 32.3199 32.0001 30.3999 32.0001C27.9313 32.0001 25.8282 30.4915 25.8282 27.8863C25.8282 26.6058 26.1483 25.2801 26.7885 24.2289L35.8855 20.9374V17.5545C35.8855 15.4974 34.9254 13.5317 32.8682 13.5317C31.634 13.5317 30.4454 15.0399 30.3542 17.3717L26.2396 18.057V17.6004C27.6109 13.4856 32.1369 11.886 34.3309 11.886C38.4909 11.886 39.9995 14.08 39.9539 17.4629L39.8169 27.0628C39.7711 28.9372 40.7766 29.3942 41.6911 29.3942C42.4223 29.3942 43.1537 28.9372 44.0226 28.0688V29.3942C43.017 30.5831 41.2343 32.0001 39.6339 32.0001ZM30.4913 24.5488C30.3084 25.2801 30.1714 25.9201 30.1714 26.9259C30.1714 28.2972 30.9485 29.6684 32.4569 29.6684C33.8283 29.6684 34.6055 29.2118 35.8399 28.2515L35.8855 22.0798C34.697 22.6284 31.7715 23.9088 30.4913 24.5488ZM44.4342 31.5887V30.5371C46.4912 30.4001 47.0851 29.943 47.4514 29.1654V5.48554C47.4514 3.93124 47.2225 3.29153 44.0683 3.01708V2.10292L52.4342 0L52.7082 0.777598L51.3828 2.42314V29.1655C51.8399 30.0801 52.7082 30.4002 54.5826 30.5372V31.5888H44.4342V31.5887ZM65.5537 31.9544C60.7539 31.9544 57.0509 28.1601 57.0509 22.8572C57.0509 16.3657 61.0284 11.9313 66.6512 11.9313C71.1767 11.9313 73.6911 14.4919 73.6911 18.5601V19.3829L61.3483 19.2917C61.2571 19.7944 61.2109 20.6176 61.2109 21.623C61.2109 26.2858 64.1367 29.3486 68.0228 29.3486C70.3538 29.3486 71.5427 28.5257 73.3709 26.9715L74.0566 28.0227C71.4512 30.4002 69.3025 31.9544 65.5537 31.9544ZM65.9656 13.3489C63.6795 13.3489 62.08 15.1772 61.5312 18.057L69.5774 17.9658C69.5772 15.5429 68.0682 13.3489 65.9656 13.3489Z" fill="white"/>
</g>
<defs>
<clipPath id="clip0_275_46">
<rect width="74.0569" height="32" fill="white"/>
</clipPath>
</defs>
</svg>
